<svg width="789" height="145" viewBox="0 0 789 145" fill="none" xmlns="http://www.w3.org/2000/svg">
<path d="M669.169 113.097V37.5423H689.678V113.097H669.169ZM718.484 113.097V68.5152C718.484 64.1352 717.075 60.7459 714.257 58.3473C711.544 55.8445 708.152 54.593 704.081 54.593C701.368 54.593 698.915 55.1666 696.723 56.3137C694.531 57.3566 692.809 58.9209 691.557 61.0066C690.304 63.0923 689.678 65.5952 689.678 68.5152L681.694 64.6045C681.694 58.7645 682.946 53.7066 685.451 49.4309C688.06 45.1552 691.557 41.8702 695.94 39.5759C700.324 37.1773 705.281 35.978 710.813 35.978C716.032 35.978 720.781 37.1773 725.06 39.5759C729.339 41.8702 732.731 45.1552 735.236 49.4309C737.741 53.6023 738.993 58.6602 738.993 64.6045V113.097H718.484ZM767.8 113.097V68.5152C767.8 64.1352 766.391 60.7459 763.573 58.3473C760.859 55.8445 757.467 54.593 753.396 54.593C750.787 54.593 748.334 55.1666 746.038 56.3137C743.847 57.3566 742.124 58.9209 740.872 61.0066C739.619 63.0923 738.993 65.5952 738.993 68.5152L727.252 65.6995C727.669 59.6509 729.287 54.4366 732.105 50.0566C734.923 45.5723 738.628 42.1309 743.22 39.7323C747.813 37.2295 752.927 35.978 758.563 35.978C764.199 35.978 769.261 37.1773 773.749 39.5759C778.237 41.8702 781.785 45.2073 784.395 49.5873C787.004 53.9673 788.309 59.1816 788.309 65.2302V113.097H767.8Z" fill="white"/>
<path d="M615.574 114.662C607.955 114.662 601.067 112.942 594.909 109.5C588.855 105.954 584.002 101.209 580.349 95.2651C576.801 89.2166 575.026 82.4901 575.026 75.0858C575.026 67.6815 576.801 61.0594 580.349 55.2194C583.898 49.2751 588.751 44.5823 594.909 41.1408C601.067 37.5951 607.903 35.8223 615.418 35.8223C623.141 35.8223 630.03 37.5951 636.083 41.1408C642.241 44.5823 647.094 49.2751 650.643 55.2194C654.192 61.0594 655.966 67.6815 655.966 75.0858C655.966 82.4901 654.192 89.2166 650.643 95.2651C647.094 101.209 642.241 105.954 636.083 109.5C630.03 112.942 623.193 114.662 615.574 114.662ZM615.418 95.578C619.279 95.578 622.672 94.7437 625.594 93.0751C628.621 91.3023 630.917 88.9037 632.482 85.8794C634.152 82.7508 634.987 79.2051 634.987 75.2423C634.987 71.2794 634.152 67.7858 632.482 64.7616C630.812 61.7373 628.516 59.3908 625.594 57.7223C622.672 55.9494 619.279 55.063 615.418 55.063C611.66 55.063 608.321 55.9494 605.398 57.7223C602.476 59.3908 600.18 61.7373 598.51 64.7616C596.84 67.7858 596.005 71.2794 596.005 75.2423C596.005 79.2051 596.84 82.7508 598.51 85.8794C600.18 88.9037 602.476 91.3023 605.398 93.0751C608.321 94.7437 611.66 95.578 615.418 95.578Z" fill="white"/>
<path d="M526.441 114.662C518.822 114.662 511.934 112.942 505.776 109.5C499.722 105.954 494.869 101.209 491.216 95.2651C487.668 89.2166 485.893 82.4901 485.893 75.0858C485.893 67.6815 487.668 61.0594 491.216 55.2194C494.765 49.2751 499.618 44.5823 505.776 41.1408C511.934 37.5951 518.77 35.8223 526.285 35.8223C534.008 35.8223 540.897 37.5951 546.95 41.1408C553.108 44.5823 557.961 49.2751 561.51 55.2194C565.058 61.0594 566.833 67.6815 566.833 75.0858C566.833 82.4901 565.058 89.2166 561.51 95.2651C557.961 101.209 553.108 105.954 546.95 109.5C540.897 112.942 534.06 114.662 526.441 114.662ZM526.285 95.578C530.146 95.578 533.538 94.7437 536.461 93.0751C539.488 91.3023 541.784 88.9037 543.349 85.8794C545.019 82.7508 545.854 79.2051 545.854 75.2423C545.854 71.2794 545.019 67.7858 543.349 64.7616C541.679 61.7373 539.383 59.3908 536.461 57.7223C533.538 55.9494 530.146 55.063 526.285 55.063C522.527 55.063 519.187 55.9494 516.265 57.7223C513.343 59.3908 511.047 61.7373 509.377 64.7616C507.707 67.7858 506.872 71.2794 506.872 75.2423C506.872 79.2051 507.707 82.7508 509.377 85.8794C511.047 88.9037 513.343 91.3023 516.265 93.0751C519.187 94.7437 522.527 95.578 526.285 95.578Z" fill="white"/>
<path d="M408.09 113.098V3.12842H429.381V113.098H408.09ZM423.745 113.098V94.1698H479.792V113.098H423.745Z" fill="white"/>
<path d="M373.816 114.661C370.059 114.661 366.98 113.41 364.579 110.907C362.179 108.404 360.979 105.328 360.979 101.678C360.979 98.0279 362.179 94.9515 364.579 92.4486C366.98 89.9458 370.059 88.6943 373.816 88.6943C377.469 88.6943 380.496 89.9458 382.896 92.4486C385.297 94.9515 386.497 98.0279 386.497 101.678C386.497 105.328 385.297 108.404 382.896 110.907C380.496 113.41 377.469 114.661 373.816 114.661Z" fill="#B8A893"/>
<path d="M311.191 114.662C303.259 114.662 296.214 112.994 290.056 109.657C283.898 106.215 278.993 101.522 275.34 95.578C271.791 89.6337 270.017 82.8551 270.017 75.2423C270.017 67.7337 271.739 61.0594 275.183 55.2194C278.732 49.2751 283.533 44.5823 289.586 41.1408C295.64 37.5951 302.372 35.8223 309.782 35.8223C317.088 35.8223 323.507 37.4908 329.038 40.828C334.674 44.0608 339.058 48.5451 342.189 54.2808C345.425 59.9123 347.042 66.3258 347.042 73.5216C347.042 74.8773 346.938 76.2851 346.729 77.7451C346.625 79.1008 346.364 80.6651 345.947 82.438L282.385 82.5944V67.2644L336.397 67.108L328.099 73.5216C327.89 69.0373 327.055 65.283 325.594 62.2587C324.237 59.2344 322.202 56.9401 319.489 55.3758C316.879 53.7073 313.644 52.873 309.782 52.873C305.712 52.873 302.163 53.8116 299.136 55.6887C296.109 57.4616 293.761 60.0165 292.091 63.3537C290.526 66.5865 289.743 70.4451 289.743 74.9294C289.743 79.518 290.578 83.533 292.248 86.9744C294.022 90.3116 296.527 92.9187 299.762 94.7958C302.998 96.5687 306.755 97.4551 311.034 97.4551C314.896 97.4551 318.393 96.8294 321.524 95.578C324.655 94.2223 327.369 92.2408 329.665 89.6337L341.72 101.679C338.067 105.954 333.579 109.187 328.256 111.377C323.037 113.567 317.349 114.662 311.191 114.662Z" fill="white"/>
<path d="M236.346 113.098V0H256.855V113.098H236.346Z" fill="white"/>
<path d="M179.571 113.723L147.947 37.5425H170.178L191.156 95.7339H183.642L205.403 37.5425H227.791L194.131 113.567L179.571 113.723ZM158.593 144.696L181.606 96.0468L194.131 113.567L180.354 144.696H158.593Z" fill="white"/>
<path d="M106.041 113.097V6.1001H126.55V113.097H106.041ZM88.3503 55.5315V37.5422H144.241V55.5315H88.3503Z" fill="white"/>
<path d="M39.9219 114.662C31.0503 114.662 23.4313 113.149 17.0646 110.125C10.8024 107.101 5.11417 102.564 0 96.5158L14.0901 82.4372C17.3256 86.7129 21.0829 90.0501 25.3621 92.4487C29.6413 94.743 34.8599 95.8901 41.0177 95.8901C46.5494 95.8901 50.933 94.7951 54.1685 92.6051C57.5083 90.4151 59.1783 87.3908 59.1783 83.5322C59.1783 80.1951 58.2389 77.4837 56.3603 75.3979C54.4816 73.3122 51.9767 71.5394 48.8456 70.0794C45.8188 68.6194 42.4268 67.3158 38.6694 66.1687C35.0164 64.9172 31.3113 63.5094 27.5539 61.9451C23.9009 60.3808 20.5089 58.4515 17.3777 56.1572C14.351 53.7587 11.8983 50.7344 10.0196 47.0844C8.14093 43.3301 7.20159 38.6372 7.20159 33.0058C7.20159 26.3315 8.81934 20.6479 12.0548 15.9551C15.2903 11.2622 19.7261 7.66437 25.3621 5.16151C30.9981 2.65865 37.3648 1.40723 44.462 1.40723C51.9767 1.40723 58.7608 2.81508 64.8143 5.6308C70.8678 8.44652 75.8254 12.0965 79.6872 16.5808L65.5971 30.6594C62.3616 27.1137 59.0217 24.5065 55.5775 22.8379C52.2376 21.1694 48.4281 20.3351 44.1489 20.3351C39.2434 20.3351 35.3817 21.2737 32.5637 23.1508C29.7457 25.0279 28.3367 27.7394 28.3367 31.2851C28.3367 34.3094 29.276 36.7601 31.1547 38.6372C33.0334 40.5144 35.4861 42.1308 38.5128 43.4865C41.644 44.8422 45.036 46.1458 48.689 47.3972C52.4464 48.6487 56.1515 50.0565 59.8045 51.6208C63.5619 53.1851 66.9539 55.2187 69.9807 57.7215C73.1118 60.2244 75.6167 63.4572 77.4954 67.4201C79.374 71.2787 80.3134 76.0758 80.3134 81.8115C80.3134 92.0315 76.7126 100.062 69.511 105.902C62.3094 111.742 52.4464 114.662 39.9219 114.662Z" fill="white"/>
</svg>
